<svg xmlns="http://www.w3.org/2000/svg" width="200" height="200" viewBox="0 0 33 33" shape-rendering="crispEdges"><path fill="#FFFFFF" d="M0 0h33v33H0z"/><path stroke="#000000" d="M2 2.5h7m1 0h2m1 0h1m3 0h3m1 0h1m2 0h7M2 3.5h1m5 0h1m1 0h3m5 0h2m1 0h1m2 0h1m5 0h1M2 4.5h1m1 0h3m1 0h1m1 0h2m1 0h2m2 0h2m2 0h1m2 0h1m1 0h3m1 0h1M2 5.5h1m1 0h3m1 0h1m3 0h1m1 0h1m3 0h2m1 0h1m2 0h1m1 0h3m1 0h1M2 6.5h1m1 0h3m1 0h1m1 0h1m2 0h2m1 0h4m1 0h2m1 0h1m1 0h3m1 0h1M2 7.5h1m5 0h1m3 0h2m3 0h4m3 0h1m5 0h1M2 8.5h7m1 0h1m1 0h1m1 0h1m1 0h1m1 0h1m1 0h1m1 0h1m1 0h7M13 9.5h1m1 0h1m1 0h2m1 0h2M2 10.5h1m2 0h6m2 0h3m2 0h6m2 0h1m1 0h3M2 11.5h4m1 0h1m1 0h1m2 0h1m1 0h2m2 0h1m2 0h2m2 0h2m1 0h2M2 12.5h1m1 0h1m3 0h3m2 0h3m1 0h2m3 0h1m1 0h1m2 0h1M3 13.5h1m1 0h1m4 0h1m2 0h1m1 0h1m2 0h3m1 0h2m1 0h1m1 0h1m2 0h1M4 14.5h1m1 0h4m1 0h2m2 0h1m1 0h2m1 0h2m2 0h2m1 0h1m2 0h1M2 15.5h1m2 0h3m1 0h2m1 0h1m2 0h2m1 0h1m2 0h1m2 0h3m1 0h1M3 16.5h1m4 0h2m2 0h1m2 0h1m1 0h3m1 0h1m2 0h1m5 0h1M3 17.5h2m1 0h1m2 0h1m1 0h4m5 0h5m1 0h3M3 18.5h1m3 0h3m3 0h1m2 0h2m1 0h1m5 0h3M2 19.5h5m8 0h3m2 0h2m1 0h2m1 0h1m1 0h1m1 0h1M2 20.5h5m1 0h2m1 0h1m1 0h1m3 0h1m2 0h2m1 0h1m3 0h1m2 0h1M2 21.5h3m2 0h1m2 0h4m2 0h1m1 0h1m2 0h2m1 0h1m1 0h1m1 0h1M2 22.5h3m1 0h4m2 0h2m1 0h2m1 0h10m2 0h1M10 23.5h2m1 0h2m1 0h2m1 0h1m1 0h2m3 0h1m2 0h2M2 24.5h7m1 0h4m2 0h2m1 0h4m1 0h1m1 0h1m1 0h1M2 25.5h1m5 0h1m1 0h2m4 0h1m2 0h4m3 0h2M2 26.5h1m1 0h3m1 0h1m1 0h3m1 0h5m2 0h7m1 0h2M2 27.5h1m1 0h3m1 0h1m1 0h1m1 0h1m2 0h1m2 0h1m3 0h2m3 0h2m1 0h1M2 28.5h1m1 0h3m1 0h1m2 0h1m2 0h1m1 0h3m5 0h3m2 0h2M2 29.5h1m5 0h1m2 0h1m2 0h1m1 0h3m1 0h2m1 0h4m1 0h1m1 0h1M2 30.5h7m1 0h1m2 0h2m2 0h2m1 0h1m1 0h2m1 0h3"/></svg>
